<?xml version="1.0" encoding="UTF-8" standalone="no"?><svg xmlns="http://www.w3.org/2000/svg" xmlns:xlink="http://www.w3.org/1999/xlink" contentScriptType="application/ecmascript" contentStyleType="text/css" height="207px" preserveAspectRatio="none" style="width:348px;height:207px;background:#FFFFFF;" version="1.1" viewBox="0 0 348 207" width="348px" zoomAndPan="magnify"><defs><filter height="300%" id="f1bokrleazmead" width="300%" x="-1" y="-1"><feGaussianBlur result="blurOut" stdDeviation="2.0"/><feColorMatrix in="blurOut" result="blurOut2" type="matrix" values="0 0 0 0 0 0 0 0 0 0 0 0 0 0 0 0 0 0 .4 0"/><feOffset dx="4.0" dy="4.0" in="blurOut2" result="blurOut3"/><feBlend in="SourceGraphic" in2="blurOut3" mode="normal"/></filter></defs><g><!--MD5=[704a1a290bb68b10775e11252f812906]
class Bibliothek--><rect codeLine="1" fill="#FEFECE" filter="url(#f1bokrleazmead)" height="186.3594" id="Bibliothek" style="stroke:#A80036;stroke-width:1.5;" width="327" x="7" y="7"/><ellipse cx="139.25" cy="23" fill="#ADD1B2" rx="11" ry="11" style="stroke:#A80036;stroke-width:1.0;"/><path d="M142.0156,18.875 Q142.1719,18.6563 142.3594,18.5469 Q142.5469,18.4375 142.7656,18.4375 Q143.1406,18.4375 143.375,18.7031 Q143.6094,18.9531 143.6094,19.5625 L143.6094,21.0156 Q143.6094,21.625 143.375,21.8906 Q143.1406,22.1563 142.7656,22.1563 Q142.4219,22.1563 142.2188,21.9531 Q142.0156,21.7656 141.9063,21.25 Q141.8594,20.8906 141.6719,20.7031 Q141.3438,20.3281 140.7344,20.1094 Q140.125,19.8906 139.5,19.8906 Q138.7344,19.8906 138.0938,20.2188 Q137.4688,20.5469 136.9688,21.2969 Q136.4844,22.0469 136.4844,23.0781 L136.4844,24.1719 Q136.4844,25.4063 137.375,26.2344 Q138.2656,27.0469 139.8594,27.0469 Q140.7969,27.0469 141.4531,26.7969 Q141.8438,26.6406 142.2656,26.2031 Q142.5313,25.9375 142.6719,25.8594 Q142.8281,25.7813 143.0313,25.7813 Q143.3594,25.7813 143.6094,26.0469 Q143.875,26.2969 143.875,26.6406 Q143.875,26.9844 143.5313,27.3906 Q143.0313,27.9688 142.2344,28.2969 Q141.1563,28.75 139.8594,28.75 Q138.3438,28.75 137.1406,28.125 Q136.1563,27.625 135.4688,26.5625 Q134.7813,25.4844 134.7813,24.2031 L134.7813,23.0469 Q134.7813,21.7188 135.3906,20.5781 Q136.0156,19.4219 137.1094,18.8125 Q138.2031,18.1875 139.4375,18.1875 Q140.1719,18.1875 140.8125,18.3594 Q141.4688,18.5156 142.0156,18.875 Z " fill="#000000"/><text fill="#000000" font-family="sans-serif" font-size="12" lengthAdjust="spacing" textLength="54" x="159.75" y="27.9102">Bibliothek</text><line style="stroke:#A80036;stroke-width:1.5;" x1="8" x2="333" y1="39" y2="39"/><ellipse cx="18" cy="50" rx="3" ry="3" style="stroke:#038048;stroke-width:1.0;fill:none;"/><text fill="#000000" font-family="sans-serif" font-size="11" lengthAdjust="spacing" textLength="19" x="27" y="54.4189">Title</text><ellipse cx="18" cy="63.8359" rx="3" ry="3" style="stroke:#038048;stroke-width:1.0;fill:none;"/><text fill="#000000" font-family="sans-serif" font-size="11" lengthAdjust="spacing" textLength="27" x="27" y="68.2549">Autor</text><ellipse cx="18" cy="77.6719" rx="3" ry="3" style="stroke:#038048;stroke-width:1.0;fill:none;"/><text fill="#000000" font-family="sans-serif" font-size="11" lengthAdjust="spacing" textLength="98" x="27" y="82.0908">Number SideNumber</text><ellipse cx="18" cy="91.5078" rx="3" ry="3" style="stroke:#038048;stroke-width:1.0;fill:none;"/><text fill="#000000" font-family="sans-serif" font-size="11" lengthAdjust="spacing" textLength="33" x="27" y="95.9268">Quality</text><ellipse cx="18" cy="105.3438" rx="3" ry="3" style="stroke:#038048;stroke-width:1.0;fill:none;"/><text fill="#000000" font-family="sans-serif" font-size="11" lengthAdjust="spacing" textLength="22" x="27" y="109.7627">Date</text><ellipse cx="18" cy="119.1797" rx="3" ry="3" style="stroke:#038048;stroke-width:1.0;fill:none;"/><text fill="#000000" font-family="sans-serif" font-size="11" lengthAdjust="spacing" textLength="48" x="27" y="123.5986">BookType</text><line style="stroke:#A80036;stroke-width:1.5;" x1="8" x2="333" y1="130.0156" y2="130.0156"/><ellipse cx="18" cy="141.0156" fill="#84BE84" rx="3" ry="3" style="stroke:#038048;stroke-width:1.0;"/><text fill="#000000" font-family="sans-serif" font-size="11" lengthAdjust="spacing" textLength="301" x="27" y="145.4346">constructor(Title, Autor, SideNumber, Quality, Date, BookType)</text><ellipse cx="18" cy="154.8516" fill="#84BE84" rx="3" ry="3" style="stroke:#038048;stroke-width:1.0;"/><text fill="#000000" font-family="sans-serif" font-size="11" lengthAdjust="spacing" textLength="32" x="27" y="159.2705">clear()</text><ellipse cx="18" cy="168.6875" fill="#84BE84" rx="3" ry="3" style="stroke:#038048;stroke-width:1.0;"/><text fill="#000000" font-family="sans-serif" font-size="11" lengthAdjust="spacing" textLength="26" x="27" y="173.1064">add()</text><ellipse cx="18" cy="182.5234" fill="#84BE84" rx="3" ry="3" style="stroke:#038048;stroke-width:1.0;"/><text fill="#000000" font-family="sans-serif" font-size="11" lengthAdjust="spacing" textLength="42" x="27" y="186.9424">search()</text><!--MD5=[66e2ebef2f63f35d0cb18f5fab0880ab]
@startuml Bibliothek
class Bibliothek {
+ Title
+ Autor
+ Number SideNumber
+ Quality
+ Date
+ BookType
+ constructor(Title, Autor, SideNumber, Quality, Date, BookType)
+ clear()
+ add()
+ search()
}
@enduml

PlantUML version 1.2021.16(Wed Dec 08 18:25:22 CET 2021)
(GPL source distribution)
Java Runtime: OpenJDK Runtime Environment
JVM: OpenJDK 64-Bit Server VM
Default Encoding: Cp1252
Language: de
Country: AT
--></g></svg>